<?xml version="1.0" standalone="no"?>
<!DOCTYPE svg PUBLIC "-//W3C//DTD SVG 20010904//EN"
 "http://www.w3.org/TR/2001/REC-SVG-20010904/DTD/svg10.dtd">
<svg version="1.0" xmlns="http://www.w3.org/2000/svg"
 width="20px" height="20px" viewBox="0 0 512.000000 512.000000"
 preserveAspectRatio="xMidYMid meet">

<g transform="translate(0.000000,512.000000) scale(0.100000,-0.100000)"
fill="#BB1E1E" stroke="none">
<path d="M1120 5106 c-93 -25 -162 -86 -207 -181 l-28 -60 0 -2360 0 -2360 24
-42 c49 -86 142 -122 231 -89 19 7 347 205 728 440 l692 428 707 -433 c680
-417 708 -433 763 -437 101 -7 178 52 200 154 7 34 10 773 8 2374 l-3 2325
-29 62 c-33 72 -94 134 -164 166 l-47 22 -1415 2 c-1097 1 -1425 -1 -1460 -11z
m2730 -2466 c0 -1149 -2 -2090 -4 -2090 -2 0 -269 163 -592 361 -324 199 -603
368 -621 375 -38 16 -101 18 -138 4 -22 -8 -340 -203 -1118 -684 l-107 -66 0
2095 0 2095 1290 0 1290 0 0 -2090z"/>
</g>
</svg>
